<?xml version="1.0" encoding="utf-8" ?>
<svg xmlns="http://www.w3.org/2000/svg" xmlns:xlink="http://www.w3.org/1999/xlink" width="1024" height="1024">
	<path fill="#FEFEFC" d="M145.865 826.326C145.815 826.216 145.75 826.112 145.714 825.997C138.112 802.069 148.884 752.022 149.292 724.177C149.727 694.521 148.063 664.847 146.729 635.231C145.418 606.136 144.503 571.301 139.174 542.827C135.574 523.595 130.059 504.947 125.355 485.99Q118.709 458.633 114.441 430.805C110.483 404.239 107.067 373.068 106.46 346.32Q106.116 330.336 106.372 314.351C106.516 307.051 107.008 299.597 106.713 292.306C106.422 285.105 104.225 278.423 102.901 271.4C99.8082 255 103.221 236.189 109.979 221.089C125.464 186.49 165.864 156.122 202.977 147.993C210.857 146.267 231.645 145.468 236.503 143.484C236.765 143.377 237.021 143.256 237.281 143.145C241.854 141.198 245.853 138.18 250.076 135.592C254.541 132.856 259.387 130.514 264.228 128.528C298.324 114.538 323.572 118.145 356.477 132.683C362.538 135.362 367.947 140.549 374.329 142.248C380.69 143.942 388.277 143.458 394.885 144.33C409.096 146.207 423.84 150.689 437.069 156.221C461.801 166.563 484.988 182.639 501.147 204.202C504.579 208.782 508.013 213.622 510.19 218.947C520.147 234.517 522.932 258.086 521.383 276.135C520.362 288.028 517.767 299.793 516.412 311.66C515.877 316.345 517.046 321.046 516.474 325.774C515.435 334.349 512.518 344.076 512.522 352.571C515.725 342.501 518.548 332.114 522.326 322.253C527.173 309.602 535.854 300.003 548.328 294.519C557.534 290.471 567.587 289.49 577.538 289.4C598.641 289.211 619.766 291.341 640.825 292.527L737.823 297.484L854.14 303.746L898.368 305.655C906.453 305.994 914.637 306.067 922.69 306.828C929.211 307.443 935.845 308.526 941.968 310.917C955.787 316.312 965.903 327.021 971.847 340.442Q972.501 342.153 973.057 343.899Q973.614 345.644 974.072 347.418Q974.53 349.191 974.888 350.988Q975.247 352.784 975.503 354.598Q975.76 356.412 975.915 358.237Q976.07 360.063 976.123 361.894Q976.175 363.725 976.125 365.556Q976.075 367.387 975.922 369.213C975.099 378.033 972.354 386.767 970.199 395.342Q965.973 411.815 962.416 428.445Q942.811 516.466 921.99 604.207C918.777 617.934 915.631 631.708 912.234 645.389C910.308 653.146 907.699 660.836 906.236 668.694C902.375 689.431 911.172 711.78 902.274 731.656C899.704 737.396 895.637 742.632 891.003 746.86C879.382 757.465 866.055 766.671 853.294 775.847Q830.703 791.96 808.381 808.445L747.539 853.197C736.029 861.795 724.789 871.418 712.772 879.265C706.176 883.574 698.528 887.285 691.145 890.01Q688.908 890.849 686.632 891.574Q684.356 892.3 682.047 892.91Q679.737 893.521 677.4 894.016Q675.063 894.51 672.704 894.888Q670.345 895.265 667.971 895.523Q665.596 895.782 663.211 895.922Q660.826 896.061 658.438 896.081Q656.049 896.101 653.662 896.002C630.779 895.094 607.998 887.858 585.794 882.786L500.263 863.63C488.332 860.893 471.521 855.372 459.693 855.177C457.364 855.138 454.932 856.039 452.857 857.019C449.184 858.753 445.726 861.395 442.278 863.555C435.532 867.78 428.751 871.61 421.359 874.599C368.154 896.112 307.668 898.204 251.619 888.605C233.024 885.42 213.656 880.902 196.477 872.958C179.429 865.074 165.044 854.946 153.591 839.959C151.101 836.7 148.188 832.942 146.677 829.098C146.322 828.196 146.09 827.266 145.865 826.326Z"/>
	<path fill="#D0CFCF" d="M971.847 340.442Q972.501 342.153 973.057 343.899Q973.614 345.644 974.072 347.418Q974.53 349.191 974.888 350.988Q975.247 352.784 975.503 354.598Q975.76 356.412 975.915 358.237Q976.07 360.063 976.123 361.894Q976.175 363.725 976.125 365.556Q976.075 367.387 975.922 369.213C975.099 378.033 972.354 386.767 970.199 395.342Q965.973 411.815 962.416 428.445Q942.811 516.466 921.99 604.207C918.777 617.934 915.631 631.708 912.234 645.389C910.308 653.146 907.699 660.836 906.236 668.694C902.375 689.431 911.172 711.78 902.274 731.656C899.704 737.396 895.637 742.632 891.003 746.86C879.382 757.465 866.055 766.671 853.294 775.847Q830.703 791.96 808.381 808.445L747.539 853.197C736.029 861.795 724.789 871.418 712.772 879.265C706.176 883.574 698.528 887.285 691.145 890.01Q688.908 890.849 686.632 891.574Q684.356 892.3 682.047 892.91Q679.737 893.521 677.4 894.016Q675.063 894.51 672.704 894.888Q670.345 895.265 667.971 895.523Q665.596 895.782 663.211 895.922Q660.826 896.061 658.438 896.081Q656.049 896.101 653.662 896.002C630.779 895.094 607.998 887.858 585.794 882.786L500.263 863.63C488.332 860.893 471.521 855.372 459.693 855.177C457.364 855.138 454.932 856.039 452.857 857.019C449.184 858.753 445.726 861.395 442.278 863.555C435.532 867.78 428.751 871.61 421.359 874.599C368.154 896.112 307.668 898.204 251.619 888.605C233.024 885.42 213.656 880.902 196.477 872.958C179.429 865.074 165.044 854.946 153.591 839.959C151.101 836.7 148.188 832.942 146.677 829.098C146.322 828.196 146.09 827.266 145.865 826.326L146.405 827.032C149.565 831.235 151.737 836.108 155.151 840.172C161.503 847.733 169.328 853.598 177.54 858.967C180.468 860.881 183.811 862.592 186.51 864.771C190.488 865.747 194.798 868.355 198.647 869.962Q210.154 874.813 222.27 877.836C285.299 893.277 363.808 895.242 424.008 867.972C434.62 863.165 444.235 855.826 454.187 849.78C472.552 852.484 490.234 857.224 508.314 861.279L593.199 880.183C612.18 884.463 631.753 890.829 651.312 891.186C669.919 891.525 688.271 887.46 704.587 878.363C717.739 871.03 729.877 860.816 741.924 851.825L794.018 813.396L853.472 769.656C865.698 760.683 879.05 752.063 889.919 741.464C896.539 735.009 900.596 728.297 903.187 719.437C903.232 719.124 903.271 718.81 903.321 718.498C906.349 699.816 900.643 680.837 904.313 662.396C905.689 655.48 907.769 648.648 909.487 641.808Q914.643 621.351 919.439 600.806L956.807 437.679Q961.699 415.942 966.963 394.293C969.65 383.19 973.114 371.677 973.983 360.26C974.502 353.445 972.104 347.506 971.857 340.916C971.851 340.758 971.85 340.6 971.847 340.442Z"/>
	<path fill="#B7B6AA" d="M903.187 719.437C904.464 724.626 901.519 729.974 898.879 734.357C896.211 738.786 892.819 742.405 888.892 745.746C873.91 758.49 857.77 769.9 841.942 781.564L774.783 830.867C761.098 840.863 747.352 850.792 733.801 860.969C725.636 867.102 717.98 873.785 709.265 879.172Q706.03 881.182 702.642 882.924Q699.255 884.665 695.737 886.126Q692.219 887.587 688.595 888.758Q684.971 889.929 681.263 890.802C671.444 893.132 660.836 894.134 650.758 893.454C627.693 891.898 605.114 884.97 582.683 879.773L499.061 861.142C486.412 858.294 473.155 853.516 460.21 852.854C451.447 852.407 442.621 861.281 435.237 865.265C428.452 868.927 421.374 872.308 414.2 875.131C353.178 899.139 249.415 897.125 190.745 867.594C189.798 867.117 188.768 866.651 187.876 866.076C187.26 865.679 186.744 865.46 186.51 864.771C190.488 865.747 194.798 868.355 198.647 869.962Q210.154 874.813 222.27 877.836C285.299 893.277 363.808 895.242 424.008 867.972C434.62 863.165 444.235 855.826 454.187 849.78C472.552 852.484 490.234 857.224 508.314 861.279L593.199 880.183C612.18 884.463 631.753 890.829 651.312 891.186C669.919 891.525 688.271 887.46 704.587 878.363C717.739 871.03 729.877 860.816 741.924 851.825L794.018 813.396L853.472 769.656C865.698 760.683 879.05 752.063 889.919 741.464C896.539 735.009 900.596 728.297 903.187 719.437Z"/>
	<path fill="#D0CFCF" d="M510.19 218.947C520.147 234.517 522.932 258.086 521.383 276.135C520.362 288.028 517.767 299.793 516.412 311.66C515.877 316.345 517.046 321.046 516.474 325.774C515.435 334.349 512.518 344.076 512.522 352.571C512.319 353.438 512.416 353.901 511.703 354.475C510.654 347.867 512.243 339.479 512.525 332.707C513.11 318.674 512.584 303.731 514.612 289.867C516.092 279.743 519.249 270.202 519.274 259.848C519.299 249.472 517.053 239.388 513.723 229.617C512.702 226.621 510.541 222.789 510.245 219.695C510.222 219.446 510.208 219.196 510.19 218.947Z"/>
	<path fill="#162830" d="M300.37 143.216C300.593 143.193 300.815 143.163 301.038 143.147C324.133 141.459 348.657 151.728 365.709 166.841Q373.783 166.067 381.881 166.513C415.091 168.439 452.754 184.761 474.738 209.804C484.714 221.169 492.316 235.515 494.389 250.624C496.301 264.568 491.921 276.958 490.892 290.628C488.395 323.788 487.384 357.012 484.347 390.152C482.651 408.653 480.597 427.266 476.43 445.398C469.775 474.361 456.69 501.538 451.011 530.737C445.852 557.263 445.63 584.696 443.869 611.605Q452.624 608.209 461.199 604.382Q489.818 512.246 516.271 419.465L530.974 370.071C534.217 359.028 537.077 347.795 540.84 336.919C542.222 332.925 543.659 328.607 546.308 325.257C551.961 318.108 561.303 314.458 570.146 313.46C581.244 312.206 601.852 314.466 613.617 315.07L708.199 320.031L852.095 327.428L895.565 329.402C904.336 329.762 913.28 329.789 922.009 330.745C928.408 331.446 934.447 333 939.547 337.108C944.836 341.369 950.004 348.439 950.311 355.394C950.712 364.439 946.918 374.78 944.798 383.569Q941.496 397.124 938.458 410.741L897.669 588.798C894.34 603.318 891.191 617.907 887.543 632.349C884.878 642.897 881.144 653.779 879.836 664.584C879.554 666.909 879.865 669.301 880.103 671.62C881.424 681.002 882.824 705.066 880.885 714.181C879.883 718.888 877.008 721.404 873.56 724.476C864.784 732.296 854.671 738.953 845.241 745.978L791.921 785.643L732.519 829.771C719.873 839.126 707.1 849.178 693.673 857.369C681.269 864.936 667.222 867.92 652.798 867.53C635.356 867.058 617.981 862.056 601.057 858.192Q572.549 851.842 544.106 845.202Q511.606 837.539 479.002 830.33C468.484 828.006 457.86 826.052 447.393 823.523C416.534 850.653 383.327 860.059 343.413 864.014C331.212 865.222 318.86 866.184 306.589 865.924C266.866 865.082 203.116 856.645 174.584 826.434C171.362 823.022 169.078 819.33 167.784 814.795C162.598 796.615 170.077 763.62 171.499 744.135C172.608 728.949 172.361 713.823 172.125 698.613Q171.382 647.266 167.589 596.054C166.182 575.623 165.159 555.022 161.439 534.85C158.114 516.826 152.627 499.288 148.004 481.575Q139.929 450.811 135.688 419.288Q132.968 397.481 131.547 375.552Q130.126 353.622 130.009 331.647C129.903 316.483 130.821 301.246 130.446 286.105C130.167 274.818 123.988 265.518 124.325 254.077C124.931 233.567 137.67 214.793 152.166 201.188C178.293 176.666 208.32 166.883 243.769 167.979C261.453 154.16 277.592 145.047 300.37 143.216Z"/>
	<path fill="#FEB91C" d="M156.89 294.962C162.994 296.499 170.854 296.986 176.093 300.644C184.394 306.441 183.267 327.912 185.122 337.338C186.549 344.59 189.324 351.877 193.882 357.756C199.74 365.311 208.21 369.702 217.633 370.881C229.845 372.409 242.166 369.475 251.836 361.766C267.611 349.192 268.96 328.035 271.102 309.494C288.805 309.368 306.539 310.154 324.266 310.001Q367.202 309.44 409.827 304.249C428.351 302.053 446.878 300.366 465.026 295.825Q464.734 313.668 463.971 331.498C463.736 337.45 463.903 343.783 462.877 349.63C462.42 357.429 462.078 365.197 461.248 372.969C458.586 400.513 455.995 427.999 448.625 454.772C442.054 478.642 432.386 501.547 427.409 525.87C422.864 548.084 421.571 570.811 420.154 593.394Q417.409 632.672 417.13 672.045C417.133 693.737 418.16 715.47 419.165 737.133C386.071 767.272 336.555 771.802 293.697 769.878C273.453 768.969 254.226 764.699 235.19 757.92C228.81 755.55 222.735 752.538 216.611 749.586C209.252 746.541 202.855 740.296 197.437 734.656C196.064 724.694 196.513 714.577 196.499 704.544Q196.5 688.835 195.88 673.139C194.551 630.991 192.303 588.351 187.845 546.41Q186.699 534.959 184.725 523.622Q182.751 512.284 179.96 501.12C176.067 485.713 171.027 470.607 167.129 455.195C159.188 423.799 153.963 379.102 156.284 346.909C156.923 341.948 156.538 336.477 156.512 331.465C156.45 319.359 155.925 307.035 156.89 294.962Z"/>
	<defs>
		<linearGradient id="gradient_0" gradientUnits="userSpaceOnUse" x1="99.501686" y1="669.31549" x2="363.61148" y2="275.71487">
			<stop offset="0" stop-color="#FFFFCB"/>
			<stop offset="1" stop-color="#FFFBED"/>
		</linearGradient>
	</defs>
	<path fill="url(#gradient_0)" d="M156.89 294.962C162.994 296.499 170.854 296.986 176.093 300.644C184.394 306.441 183.267 327.912 185.122 337.338C186.549 344.59 189.324 351.877 193.882 357.756C199.74 365.311 208.21 369.702 217.633 370.881C229.845 372.409 242.166 369.475 251.836 361.766C267.611 349.192 268.96 328.035 271.102 309.494C288.805 309.368 306.539 310.154 324.266 310.001Q367.202 309.44 409.827 304.249C428.351 302.053 446.878 300.366 465.026 295.825Q464.734 313.668 463.971 331.498C463.736 337.45 463.903 343.783 462.877 349.63C458.804 351.643 454.888 354.113 450.728 355.93C436.165 362.291 418.326 365.78 402.519 367.169Q383.244 369.759 363.833 370.969Q344.423 372.179 324.975 372.002C306.621 371.809 288.261 370.543 269.927 370.431C263.13 376.687 256.113 381.277 248.023 385.676C235.759 390.008 222.772 388.681 210.262 386.045Q218.439 444.415 223.58 503.13C226.597 534.955 229.604 566.903 230.818 598.859Q232.284 636.921 232.384 675.012C232.305 699.201 229.807 735.253 235.19 757.92C228.81 755.55 222.735 752.538 216.611 749.586C209.252 746.541 202.855 740.296 197.437 734.656C196.064 724.694 196.513 714.577 196.499 704.544Q196.5 688.835 195.88 673.139C194.551 630.991 192.303 588.351 187.845 546.41Q186.699 534.959 184.725 523.622Q182.751 512.284 179.96 501.12C176.067 485.713 171.027 470.607 167.129 455.195C159.188 423.799 153.963 379.102 156.284 346.909C156.923 341.948 156.538 336.477 156.512 331.465C156.45 319.359 155.925 307.035 156.89 294.962Z"/>
	<path fill="#FEB91C" d="M156.284 346.909L156.922 347.504C162.473 352.625 175.746 359.572 177.064 367.159C178.468 375.245 178.815 383.476 179.739 391.627C181.58 407.872 183.817 424.344 187.19 440.348C192.415 465.138 200.577 489.2 206.14 513.908Q208.585 525.237 210.228 536.71Q211.87 548.182 212.703 559.742C215.868 599.189 216.165 639.146 215.989 678.702C215.906 697.434 212.626 732.472 216.611 749.586C209.252 746.541 202.855 740.296 197.437 734.656C196.064 724.694 196.513 714.577 196.499 704.544Q196.5 688.835 195.88 673.139C194.551 630.991 192.303 588.351 187.845 546.41Q186.699 534.959 184.725 523.622Q182.751 512.284 179.96 501.12C176.067 485.713 171.027 470.607 167.129 455.195C159.188 423.799 153.963 379.102 156.284 346.909Z"/>
	<path fill="#F4DAA5" d="M409.827 304.249C428.351 302.053 446.878 300.366 465.026 295.825Q464.734 313.668 463.971 331.498C463.736 337.45 463.903 343.783 462.877 349.63C458.804 351.643 454.888 354.113 450.728 355.93C436.165 362.291 418.326 365.78 402.519 367.169C402.237 345.804 405.196 325.055 409.827 304.249Z"/>
	<path fill="#F7900F" d="M462.877 349.63C462.42 357.429 462.078 365.197 461.248 372.969L461.033 370.79C459.756 369.869 458.785 369.752 457.219 369.979C453.466 370.522 449.125 372.781 445.795 374.577C439.219 388.694 437.947 405.004 435.544 420.235Q433.254 434.419 430.17 448.451C422.217 484.351 409.884 518.788 404.708 555.356C401.836 575.649 402.819 596.24 402.476 616.667C402.22 631.865 401.204 647.058 401.067 662.255C400.975 672.39 401.502 682.584 402.034 692.702C402.884 708.865 405.784 724.828 406.003 741.071C381.514 754.543 331.899 766.06 304.856 758.013C300.358 756.675 296.451 754.541 292.408 752.199C311.562 749.941 348.507 746.139 361.031 730.893C363.127 728.342 363.652 725.481 363.801 722.258C364.401 709.224 361.78 696.088 362.041 682.95C362.495 660.079 365.988 637.415 367.904 614.652C369.814 591.959 368.861 568.993 372.125 546.429C376.322 517.423 384.862 489.667 390.713 461.064C393.297 448.434 395.711 435.766 397.276 422.964C398.619 411.984 399.226 400.909 400.606 389.943C384.827 391.012 369.138 393.268 353.351 394.133C332.096 395.297 264.03 395.81 248.023 385.676C256.113 381.277 263.13 376.687 269.927 370.431C288.261 370.543 306.621 371.809 324.975 372.002Q344.423 372.179 363.833 370.969Q383.244 369.759 402.519 367.169C418.326 365.78 436.165 362.291 450.728 355.93C454.888 354.113 458.804 351.643 462.877 349.63Z"/>
	<path fill="#F7900F" d="M240.001 437.947C241.803 437.918 243.527 437.785 245.012 439.002C246.234 440.003 246.705 441.506 246.682 443.034C246.621 447.246 244.029 450.908 241.162 453.732C239.409 453.411 237.991 452.753 236.832 451.371C235.318 449.564 234.88 447.457 235.149 445.156C235.581 441.45 237.114 440.139 240.001 437.947Z"/>
	<path fill="#F7900F" d="M355.356 488.274C357.844 488.939 359.574 490.724 361.457 492.376C359.919 495.046 358.33 497.35 356.346 499.712C354.708 500.019 353.754 499.937 352.257 499.189C351.585 498.219 351.278 497.826 351.231 496.596C351.104 493.276 353.203 490.528 355.356 488.274Z"/>
	<path fill="#F7900F" d="M304.159 475.345C305.906 475.533 306.675 475.727 308.125 476.717C308.832 477.934 309.113 478.29 308.86 479.758C308.383 482.522 305.481 484.605 303.404 486.1C302.204 486.5 301.607 486.439 300.379 486.167C299.634 485.058 299.429 484.2 299.587 482.84C299.987 479.382 301.581 477.466 304.159 475.345Z"/>
	<path fill="#F7900F" d="M282.997 675.904L283.478 676.054C284.365 676.872 284.902 677.566 285.17 678.779C285.523 680.375 284.701 682.261 283.88 683.579C282.417 685.928 281.057 686.69 278.412 687.315C277.648 686.701 276.614 685.762 276.153 684.885C275.578 683.791 275.45 682.651 275.919 681.489C277.026 678.748 280.533 677.195 282.997 675.904Z"/>
	<path fill="#F7900F" d="M329.52 634.484C330.505 635.226 331.577 636.672 332.154 637.759C332.904 639.173 333.061 640.768 332.55 642.293C331.851 644.382 330.324 645.268 328.454 646.21C327.287 645.906 326.226 645.574 325.38 644.649C324.464 643.646 324.155 642.462 324.283 641.135C324.586 637.991 327.224 636.191 329.52 634.484Z"/>
	<path fill="#F7900F" d="M343.802 425.982C346.035 425.894 348.573 425.961 350.287 427.645C351.046 428.391 351.339 429.325 351.165 430.369C350.91 431.899 349.358 432.995 348.25 433.937C346.306 434.475 344.359 435.081 342.546 433.804C341.541 433.096 341.09 432.02 341.107 430.813C341.137 428.627 342.375 427.437 343.802 425.982Z"/>
	<path fill="#F7900F" d="M335.209 539.89L336.462 540.143C337.143 540.85 337.67 541.13 337.851 542.138C338.166 543.896 337.513 545.35 336.507 546.753C335.344 548.374 334.053 548.728 332.165 549.011C331.479 548.753 330.624 548.5 330.011 548.103C328.782 547.306 328.701 547 328.365 545.668C329.395 542.807 332.736 541.363 335.209 539.89Z"/>
	<path fill="#F7900F" d="M353.136 709.857C353.306 710.035 353.48 710.21 353.645 710.392C354.866 711.731 355.746 713.454 355.566 715.3C355.294 718.09 352.313 719.971 350.284 721.458C349.607 720.968 348.641 720.227 348.463 719.381C347.786 716.169 351.339 712.271 353.136 709.857Z"/>
	<path fill="#F7900F" d="M280.396 408.853C280.597 409.006 280.809 409.145 280.999 409.312C281.928 410.128 282.752 411.552 282.73 412.792C282.682 415.564 279.86 417.634 277.925 419.21C277.556 419.067 277.137 418.927 276.822 418.681C275.903 417.962 275.347 417.182 275.382 415.985C275.459 413.334 278.603 410.595 280.396 408.853Z"/>
	<path fill="#F7900F" d="M304.897 586.283Q305.105 586.2 305.322 586.145Q305.54 586.09 305.762 586.064Q305.985 586.038 306.209 586.042Q306.433 586.046 306.655 586.08Q306.877 586.113 307.092 586.176Q307.307 586.238 307.512 586.329Q307.717 586.419 307.909 586.536Q308.1 586.653 308.274 586.794Q308.448 586.935 308.602 587.098Q308.756 587.261 308.887 587.443Q309.018 587.625 309.124 587.822Q309.23 588.02 309.309 588.23Q309.387 588.44 309.438 588.658Q309.488 588.877 309.509 589.1Q309.53 589.323 309.521 589.547Q309.512 589.771 309.474 589.992Q309.436 590.213 309.368 590.427Q309.301 590.641 309.206 590.844Q309.112 591.047 308.991 591.236Q308.87 591.424 308.725 591.595Q308.58 591.767 308.414 591.917Q308.248 592.068 308.063 592.195Q307.878 592.322 307.678 592.423Q307.479 592.525 307.267 592.599Q307.113 592.653 306.954 592.692Q306.795 592.731 306.633 592.755Q306.472 592.778 306.308 592.786Q306.145 592.793 305.982 592.785Q305.819 592.777 305.657 592.753Q305.495 592.729 305.336 592.69Q305.178 592.65 305.024 592.596Q304.87 592.541 304.721 592.472Q304.573 592.403 304.433 592.32Q304.292 592.237 304.16 592.14Q304.028 592.044 303.906 591.935Q303.784 591.826 303.673 591.706Q303.562 591.586 303.463 591.456Q303.364 591.326 303.278 591.187Q303.192 591.048 303.12 590.901Q303.048 590.754 302.991 590.601Q302.934 590.448 302.891 590.29Q302.849 590.132 302.822 589.971Q302.795 589.81 302.784 589.647Q302.773 589.483 302.777 589.32Q302.782 589.157 302.802 588.994Q302.823 588.832 302.859 588.673Q302.895 588.513 302.946 588.358Q302.997 588.203 303.063 588.053Q303.129 587.904 303.209 587.761Q303.29 587.619 303.383 587.485Q303.477 587.351 303.583 587.226Q303.689 587.102 303.807 586.988Q303.924 586.875 304.052 586.773Q304.18 586.672 304.318 586.583Q304.455 586.494 304.6 586.419Q304.745 586.344 304.897 586.283Z"/>
	<path fill="#F7900F" d="M265.955 511.368L266.654 511.785C267.079 513.128 267.34 514.676 267.116 516.091C266.923 517.306 266.517 517.745 265.511 518.348L264.255 517.942C262.795 517.199 261.972 517.05 261.407 515.491C262.07 513.687 264.431 512.455 265.955 511.368Z"/>
	<path fill="#F7900F" d="M302.92 731.273C303.675 731.786 303.76 731.639 304.017 732.397C304.841 734.827 302.789 738.421 301.822 740.663C301.708 740.556 301.581 740.462 301.48 740.343C300.671 739.389 299.971 737.479 300.077 736.217C300.281 733.785 301.194 732.84 302.92 731.273Z"/>
	<path fill="#F7900F" d="M259.658 603.12C261.368 603.696 262.244 604.15 263.246 605.677C263.634 607.471 263.186 608.646 262.625 610.359C261.837 610.377 261.52 610.216 260.809 609.915C259.08 607.791 259.398 605.698 259.658 603.12Z"/>
	<path fill="#6C7879" d="M490.431 597.107C502.559 551.259 516.799 506.061 529.729 460.443Q539.206 426.307 549.03 392.269C553.082 378.383 556.987 364.283 562.154 350.767C563.299 347.771 564.59 343.813 567.421 342.04C571.735 339.339 577.058 338.979 582.019 339.068C589.083 339.193 596.172 339.989 603.231 340.376L647.083 342.577L797.567 350.137C810.573 350.731 823.597 351.086 836.595 351.802C848.496 352.457 860.39 353.5 872.298 353.943C885.71 354.442 900.488 352.692 913.576 355.633C918.448 355.868 921.384 357.959 924.88 361.114Q899.398 464.552 875.836 568.443C870.138 593.572 865.71 619.061 859.445 644.042C838.735 642.455 818.003 638.798 797.401 636.061Q750.649 629.957 703.833 624.361L597.66 611.113C565.016 607.231 532.48 603.88 500.002 598.657C496.92 597.84 493.594 597.554 490.431 597.107Z"/>
	<path fill="#B7B6AA" d="M490.431 597.107C502.559 551.259 516.799 506.061 529.729 460.443Q539.206 426.307 549.03 392.269C553.082 378.383 556.987 364.283 562.154 350.767C563.299 347.771 564.59 343.813 567.421 342.04C571.735 339.339 577.058 338.979 582.019 339.068C589.083 339.193 596.172 339.989 603.231 340.376L647.083 342.577L797.567 350.137C810.573 350.731 823.597 351.086 836.595 351.802C848.496 352.457 860.39 353.5 872.298 353.943C885.71 354.442 900.488 352.692 913.576 355.633Q917.786 358.635 921.888 361.782Q834.409 360.726 746.985 357.427C732.31 356.893 717.658 355.804 702.977 355.288L629.483 352.564C615.277 352.068 600.855 352.296 586.726 350.635C582.291 350.113 578.734 349.119 574.952 346.653C574.514 347.607 574.773 346.894 574.559 348.119C574.044 351.059 570.611 353.844 569.568 356.866C568.013 361.369 567.375 366.32 566.109 370.931C563.742 379.549 560.996 388.099 558.497 396.685L517.708 536.594C511.785 557.251 504.668 577.674 500.002 598.657C496.92 597.84 493.594 597.554 490.431 597.107Z"/>
	<path fill="#162830" d="M580.357 360.405C604.503 361.111 628.688 363.718 652.791 365.351C686.181 367.614 719.649 369.164 753.065 371.044L838.207 375.779C857.812 376.711 877.691 376.799 897.186 379.07C895.655 393.927 892.191 408.749 889.054 423.335C882.477 453.918 874.56 484.008 867.171 514.385Q858.753 547.819 851.701 581.567C849.089 594.68 847.478 608.01 844.719 621.072L833.926 620.385L598.871 592.565L548.284 586.681C538.172 585.546 527.109 585.414 517.414 582.271C518.277 568.298 525.277 551.331 528.94 537.439Q537.962 501.916 548.014 466.671C553.649 447.587 560.168 428.766 565.95 409.725C570.931 393.324 575.035 376.714 580.357 360.405Z"/>
	<path fill="#3C4653" d="M598.037 383.862C609.108 386.802 622.52 385.909 634.001 386.66L708.269 391.706C698.692 399.371 689.457 407.561 680.083 415.476L620.023 465.825C613.473 471.877 606.437 477.492 599.598 483.216Q579.83 499.886 559.562 515.945C561.731 500.534 567.02 485.853 571.475 471.002L588.018 415.757C591.305 405.102 595.014 394.6 598.037 383.862Z"/>
	<path fill="#FEFEFC" d="M247.659 199.767C251.725 194.526 255.939 189.505 260.945 185.126C274.161 173.562 290.859 166.097 308.649 167.337C331.364 168.919 349.009 183.389 363.424 199.809Q367.15 197.281 371.362 195.69C386.042 190.244 401.82 194.979 415.461 201.158C434.679 208.421 456.484 222.746 465.242 241.96C468.352 248.782 470.617 258.014 467.894 265.266C466.59 268.739 464.072 270.407 460.757 271.814C446.24 277.974 428.031 278.805 412.44 280.417Q387.511 283.185 362.468 284.585Q337.425 285.986 312.343 286.014C300.901 285.987 270.051 284.69 260.866 286.915C255.136 288.302 251.301 291.633 248.964 297.041C242.262 312.557 248.849 339.076 229.663 346.732C229.518 346.79 229.37 346.839 229.223 346.892C225.873 347.779 222.166 347.892 218.929 346.53C207.204 341.598 208.777 321.083 207.815 310.788C207.309 305.373 206.348 299.982 204.356 294.9C202.744 290.784 200.154 287.255 197.003 284.181C185.55 273.007 171.079 274.543 157.477 268.512C154.29 267.099 150.564 264.932 149.373 261.422C147.024 254.498 149.612 245.494 152.72 239.162C162.349 219.545 184.351 203.606 204.747 196.875C220.073 191.818 233.255 192.512 247.659 199.767Z"/>
	<path fill="#F4DAA5" d="M415.461 201.158C434.679 208.421 456.484 222.746 465.242 241.96C468.352 248.782 470.617 258.014 467.894 265.266C466.59 268.739 464.072 270.407 460.757 271.814C446.24 277.974 428.031 278.805 412.44 280.417Q387.511 283.185 362.468 284.585Q337.425 285.986 312.343 286.014C300.901 285.987 270.051 284.69 260.866 286.915C255.136 288.302 251.301 291.633 248.964 297.041C242.262 312.557 248.849 339.076 229.663 346.732C229.518 346.79 229.37 346.839 229.223 346.892C225.573 331.906 227.004 315.263 231.786 300.685C238.686 279.648 257.173 260.132 280.534 259.585C288.97 259.388 302.235 263.579 309.814 259.344C315.278 256.291 316.545 247.574 317.964 241.968C325.655 253.611 326.94 260.869 341.645 265.898C352.552 269.628 365.339 269.413 375.738 264.185C386.546 258.752 390.508 250.148 394.127 239.124C396.341 243.226 399.274 246.571 403.416 248.809C409.26 251.968 416.654 252.492 422.97 250.534C427.983 248.979 432.452 245.748 434.798 240.963Q435.184 240.183 435.488 239.368Q435.793 238.552 436.014 237.711Q436.236 236.869 436.371 236.009Q436.506 235.149 436.554 234.281Q436.601 233.411 436.561 232.542Q436.521 231.673 436.393 230.812Q436.266 229.951 436.052 229.107Q435.838 228.264 435.54 227.446C433.035 220.75 427.472 218.15 421.448 215.305C420.694 209.67 418.072 206.619 415.71 201.686L415.461 201.158Z"/>
	<path fill="#B7B6AA" d="M484.371 619.559Q542.164 628.287 600.198 635.239L750.527 654.16C782.952 658.23 815.902 661.279 848.108 666.778C849.914 667.087 851.164 667.526 852.73 668.475L853.017 669.321C850.918 672.443 847.489 674.829 844.443 676.975C834.265 684.146 823.597 690.728 813.238 697.65Q782.205 718.373 751.401 739.437L692.167 780.041C685.484 784.668 679.146 789.845 672.364 794.313C669.656 796.098 665.72 798.813 662.541 799.501C656.702 800.764 650.459 800.368 644.593 799.553C634.152 798.101 623.781 795.457 613.48 793.227L563.038 782.353L488.745 766.442C474.532 763.432 460.235 760.748 446.109 757.35C445.72 753.302 445.425 749.221 444.881 745.193C443.38 733.211 442.856 720.986 441.982 708.94L441.931 706.085C441.775 703.743 441.553 701.384 441.519 699.037C502.326 710.846 563.642 720.656 624.71 731.077Q646.536 734.791 668.418 738.156C679.988 739.966 691.884 741.363 703.084 744.888C717.774 734.92 732.901 725.854 747.991 716.524Q770.123 702.778 792.098 688.782C799.112 684.363 806.281 680.181 813.167 675.562C799.204 673.052 785.2 671.79 771.128 670.115Q738.062 666.216 705.046 661.914L490.215 632.292C483.348 635.533 476.799 639.382 470.132 643.008Q455.742 650.707 441.47 658.623Q441.28 648.768 441.633 638.918C455.973 634.633 473.498 630.465 484.371 619.559Z"/>
	<path fill="#6C7879" d="M441.982 708.94C448.698 710.139 456.086 712.17 462.881 711.981C483.062 716.434 503.538 719.297 523.833 723.126C533.184 724.89 542.394 727.356 551.708 729.302C558.83 730.79 566.058 731.856 573.243 732.993C561.647 739.891 523.171 757.603 510.504 758.451C503.008 758.952 495.787 757.035 488.589 755.21Q466.832 749.78 444.881 745.193C443.38 733.211 442.856 720.986 441.982 708.94Z"/>
	<path fill="#959491" d="M441.931 706.085C448.942 707.519 456.428 708.813 462.881 711.981C456.086 712.17 448.698 710.139 441.982 708.94L441.931 706.085Z"/>
	<path fill="#6C7879" d="M194.67 764.269C201.066 768.067 207.73 771.385 214.39 774.687C222.043 777.96 229.459 781.008 237.52 783.176C279.14 795.065 321.451 797.29 363.706 787.143C364.732 800.228 365.155 811.076 359.24 823.142C372.811 821.086 396.418 817.372 405.006 805.516C411.164 797.014 407.514 784.2 407.442 774.459C412.602 771.485 417.825 768.584 422.887 765.445C423.926 779.075 424.819 792.732 426.035 806.347C418.406 812.459 410.722 817.98 402.021 822.526C364.22 842.28 317.172 844.721 275.473 839.963C272.523 839.626 269.02 839.235 266.266 838.123C248.543 836.425 230.881 831.031 214.62 823.997C205.021 820.192 198.013 814.614 190.996 807.152C190.66 794.707 192.397 776.58 194.67 764.269Z"/>
	<path fill="#B7B6AA" d="M194.67 764.269C201.066 768.067 207.73 771.385 214.39 774.687C222.043 777.96 229.459 781.008 237.52 783.176C237.417 794.455 236.775 805.68 236.241 816.943C242.311 827.054 248.738 830.799 259.454 834.952C261.737 835.837 264.374 836.559 266.266 838.123C248.543 836.425 230.881 831.031 214.62 823.997C205.021 820.192 198.013 814.614 190.996 807.152C190.66 794.707 192.397 776.58 194.67 764.269Z"/>
	<path fill="#6C7879" d="M194.67 764.269C201.066 768.067 207.73 771.385 214.39 774.687C211.596 777.635 212.031 792.573 212.156 797.135C212.405 806.178 213.344 815.046 214.62 823.997C205.021 820.192 198.013 814.614 190.996 807.152C190.66 794.707 192.397 776.58 194.67 764.269Z"/>
	<path fill="#3C4653" d="M855.868 693.44C857.916 696.859 856.769 705.172 856.567 709.202C842.803 722.59 825.348 732.353 810.037 743.878Q764.601 778.632 717.77 811.482C706.668 819.348 695.87 827.825 684.432 835.186C673.538 842.197 663.413 844.397 650.494 844.024C638.169 843.668 626.222 840.34 614.295 837.516Q599.777 834.095 585.208 830.901L451.105 801.139Q449.874 789.622 448.95 778.077Q454.885 779.644 460.869 781.012C498.91 789.861 537.344 797.465 575.506 805.83L613.23 814.226C623.998 816.678 634.827 819.396 645.822 820.627C652.99 821.43 660.551 820.999 667.624 819.629C674.379 818.322 680.999 814.888 686.858 811.39C700.367 803.323 712.558 793.157 725.442 784.151C744.465 770.854 763.698 757.87 782.565 744.347C806.785 726.987 830.545 709.199 855.868 693.44Z"/>
	<path fill="#3C4653" d="M460.634 664.461C471.117 666.345 481.691 668.977 492.103 671.29C485.941 674.959 479.438 678.144 473.203 681.715C462.172 680.456 450.749 678.64 440.172 675.255C445.983 670.043 453.559 667.479 460.634 664.461Z"/>
	<path fill="#3C4653" d="M514.614 673.054C523.212 672.634 533.214 675.758 541.274 678.478C533.409 682.136 525.627 686.008 517.822 689.795C508.949 691.44 500.056 688.459 491.735 685.599C498.535 680.569 506.958 676.648 514.614 673.054Z"/>
	<path fill="#3C4653" d="M560.11 682.502C569.04 682.27 578.528 684.944 587.041 687.373C580.087 691.669 572.894 695.695 565.773 699.71C556.47 698.092 547.222 696.244 537.898 694.72Q548.672 688.007 560.11 682.502Z"/>
	<path fill="#3C4653" d="M655.498 698.065C662.575 698.008 669.791 700.123 676.572 701.941C670.77 706.705 661.916 713.956 654.44 715.28C646.57 714.281 638.941 712.049 631.303 709.975C638.642 704.799 646.857 700.562 655.498 698.065Z"/>
	<path fill="#3C4653" d="M608.534 690.051C617.045 689.692 625.473 691.83 633.554 694.245C625.837 698.267 618.584 703.064 610.582 706.559C602.169 705.755 594.137 704.131 585.921 702.217C593.321 697.896 600.761 693.674 608.534 690.051Z"/>
	<path fill="#3C4653" d="M683.719 677.493C693.022 677.716 702.359 679.738 711.494 681.399C705.878 684.349 700.478 687.595 695.06 690.89C687.045 693.059 675.836 689.212 667.697 687.676C672.745 683.827 678.222 680.645 683.719 677.493Z"/>
	<path fill="#3C4653" d="M541.56 657.523C551.521 657.436 561.921 658.729 571.37 661.957L557.764 669.965C550.964 671.93 535.76 666.559 528.681 664.489C532.915 662.012 537.122 659.63 541.56 657.523Z"/>
	<path fill="#3C4653" d="M698.234 708.534C699.654 707.807 701.127 707.134 702.437 706.22C708.58 707.531 714.745 708.767 720.806 710.425C714.651 714.431 708.564 718.567 701.976 721.841C695.036 720.31 688.201 718.382 681.246 716.902L681.379 716.219L683.042 715.237Q683.736 714.539 684.477 713.891C688.454 710.453 692.889 708.191 698.234 708.534Z"/>
	<path fill="#273744" d="M683.042 715.237Q683.736 714.539 684.477 713.891C688.454 710.453 692.889 708.191 698.234 708.534C693.493 711.455 688.775 714.9 683.042 715.237Z"/>
	<path fill="#3C4653" d="M735.604 684.55C743.404 683.722 751.931 685.581 759.755 686.208C753.547 689.669 747.532 693.603 741.466 697.314C734.909 700.015 725.833 696.21 719.302 694.557C724.59 690.836 729.692 687.248 735.604 684.55Z"/>
	<path fill="#3C4653" d="M491.088 650.636C500.43 650.337 510.793 652.3 519.718 654.98C514.62 657.342 509.601 659.933 504.561 662.419C494.898 661.908 485.345 659.57 475.887 657.637Q483.245 653.611 491.088 650.636Z"/>
	<path fill="#3C4653" d="M592.081 666.081C600.693 665.821 609.571 667.452 617.936 669.344C613.688 672.231 609.326 675.046 604.568 677.025C595.974 677.087 587.031 674.959 578.536 673.648C582.924 670.783 587.277 668.199 592.081 666.081Z"/>
	<path fill="#3C4653" d="M638.27 670.927C645.954 672.688 654.199 673.251 662.037 674.207C657.554 677.367 652.43 679.522 647.42 681.694C639.73 684.086 631.872 681.57 624.388 679.571C628.732 676.364 633.647 673.724 638.27 670.927Z"/>
</svg>
